<svg width="87" height="33" viewBox="0 0 87 33" fill="none" xmlns="http://www.w3.org/2000/svg">
<path d="M0.0241196 9.465V0.105H15.2791V33H4.79412V9.465H0.0241196ZM46.9778 8.88H33.9278V12.66C34.4978 12.15 35.2328 11.745 36.1328 11.445C37.0628 11.145 38.0978 10.995 39.2378 10.995C41.2778 10.995 43.0028 11.475 44.4128 12.435C45.8228 13.395 46.8728 14.685 47.5628 16.305C48.2528 17.895 48.5978 19.665 48.5978 21.615C48.5978 25.215 47.5778 28.02 45.5378 30.03C43.5278 32.01 40.7528 33 37.2128 33C34.6328 33 32.3978 32.55 30.5078 31.65C28.6478 30.75 27.2228 29.505 26.2328 27.915C25.2728 26.325 24.8228 24.51 24.8828 22.47H34.6028C34.6028 22.95 34.7678 23.4 35.0978 23.82C35.4278 24.24 35.9678 24.45 36.7178 24.45C37.4678 24.45 38.0228 24.18 38.3828 23.64C38.7428 23.1 38.9228 22.365 38.9228 21.435C38.9228 20.565 38.7128 19.905 38.2928 19.455C37.9028 19.005 37.3328 18.78 36.5828 18.78C35.9528 18.78 35.4728 18.93 35.1428 19.23C34.8128 19.53 34.6478 19.875 34.6478 20.265H24.9278V0.105H46.9778V8.88ZM86.4048 1.14L74.9748 23.325V33H64.9848V23.325L53.5548 1.14H64.9848L70.0698 12.435L75.1548 1.14H86.4048Z" fill="#757575"/>
</svg>
