<svg width="86" height="34" viewBox="0 0 86 34" fill="none" xmlns="http://www.w3.org/2000/svg">
<path d="M1.11976 26.035C5.13976 23.035 8.31976 20.32 10.6598 17.89C12.9998 15.43 14.1698 13.135 14.1698 11.005C14.1698 10.285 14.0048 9.73 13.6748 9.34C13.3748 8.95 12.9698 8.755 12.4598 8.755C11.8598 8.755 11.3798 9.07 11.0198 9.7C10.6898 10.3 10.5698 11.23 10.6598 12.49H0.984764C1.07476 9.7 1.67476 7.405 2.78476 5.605C3.92476 3.805 5.39476 2.485 7.19476 1.645C8.99476 0.804998 10.9748 0.384998 13.1348 0.384998C16.9748 0.384998 19.7798 1.315 21.5498 3.175C23.3498 5.005 24.2498 7.36 24.2498 10.24C24.2498 13.27 23.2748 16.12 21.3248 18.79C19.4048 21.43 16.9898 23.665 14.0798 25.495H24.3848V33.55H1.11976V26.035ZM54.778 9.88H41.728V13.66C42.298 13.15 43.033 12.745 43.933 12.445C44.863 12.145 45.898 11.995 47.038 11.995C49.078 11.995 50.803 12.475 52.213 13.435C53.623 14.395 54.673 15.685 55.363 17.305C56.053 18.895 56.398 20.665 56.398 22.615C56.398 26.215 55.378 29.02 53.338 31.03C51.328 33.01 48.553 34 45.013 34C42.433 34 40.198 33.55 38.308 32.65C36.448 31.75 35.023 30.505 34.033 28.915C33.073 27.325 32.623 25.51 32.683 23.47H42.403C42.403 23.95 42.568 24.4 42.898 24.82C43.228 25.24 43.768 25.45 44.518 25.45C45.268 25.45 45.823 25.18 46.183 24.64C46.543 24.1 46.723 23.365 46.723 22.435C46.723 21.565 46.513 20.905 46.093 20.455C45.703 20.005 45.133 19.78 44.383 19.78C43.753 19.78 43.273 19.93 42.943 20.23C42.613 20.53 42.448 20.875 42.448 21.265H32.728V1.105H54.778V9.88ZM85.2501 23.29H78.5451V30.175H68.9601V23.29H62.2551V14.155H68.9601V7.225H78.5451V14.155H85.2501V23.29Z" fill="#757575"/>
</svg>
