<svg width="120" height="34" viewBox="0 0 120 34" fill="none" xmlns="http://www.w3.org/2000/svg">
<path d="M23.014 9.88H9.96399V13.66C10.534 13.15 11.269 12.745 12.169 12.445C13.099 12.145 14.134 11.995 15.274 11.995C17.314 11.995 19.039 12.475 20.449 13.435C21.859 14.395 22.909 15.685 23.599 17.305C24.289 18.895 24.634 20.665 24.634 22.615C24.634 26.215 23.614 29.02 21.574 31.03C19.564 33.01 16.789 34 13.249 34C10.669 34 8.43399 33.55 6.54399 32.65C4.68399 31.75 3.25899 30.505 2.26899 28.915C1.30899 27.325 0.858986 25.51 0.918986 23.47H10.639C10.639 23.95 10.804 24.4 11.134 24.82C11.464 25.24 12.004 25.45 12.754 25.45C13.504 25.45 14.059 25.18 14.419 24.64C14.779 24.1 14.959 23.365 14.959 22.435C14.959 21.565 14.749 20.905 14.329 20.455C13.939 20.005 13.369 19.78 12.619 19.78C11.989 19.78 11.509 19.93 11.179 20.23C10.849 20.53 10.684 20.875 10.684 21.265H0.963986V1.105H23.014V9.88ZM31.031 17.08C31.031 11.89 32.126 7.81 34.316 4.84C36.536 1.87 39.941 0.384998 44.531 0.384998C49.091 0.384998 52.481 1.885 54.701 4.885C56.921 7.855 58.031 11.92 58.031 17.08C58.031 22.27 56.921 26.365 54.701 29.365C52.481 32.335 49.091 33.82 44.531 33.82C39.941 33.82 36.536 32.335 34.316 29.365C32.126 26.365 31.031 22.27 31.031 17.08ZM48.176 17.08C48.176 14.68 47.936 12.88 47.456 11.68C46.976 10.45 46.001 9.835 44.531 9.835C43.031 9.835 42.041 10.45 41.561 11.68C41.081 12.88 40.841 14.68 40.841 17.08C40.841 19.51 41.081 21.34 41.561 22.57C42.041 23.77 43.031 24.37 44.531 24.37C46.001 24.37 46.976 23.77 47.456 22.57C47.936 21.34 48.176 19.51 48.176 17.08ZM63.9759 17.08C63.9759 11.89 65.0709 7.81 67.2609 4.84C69.4809 1.87 72.8859 0.384998 77.4759 0.384998C82.0359 0.384998 85.4259 1.885 87.6459 4.885C89.8659 7.855 90.9759 11.92 90.9759 17.08C90.9759 22.27 89.8659 26.365 87.6459 29.365C85.4259 32.335 82.0359 33.82 77.4759 33.82C72.8859 33.82 69.4809 32.335 67.2609 29.365C65.0709 26.365 63.9759 22.27 63.9759 17.08ZM81.1209 17.08C81.1209 14.68 80.8809 12.88 80.4009 11.68C79.9209 10.45 78.9459 9.835 77.4759 9.835C75.9759 9.835 74.9859 10.45 74.5059 11.68C74.0259 12.88 73.7859 14.68 73.7859 17.08C73.7859 19.51 74.0259 21.34 74.5059 22.57C74.9859 23.77 75.9759 24.37 77.4759 24.37C78.9459 24.37 79.9209 23.77 80.4009 22.57C80.8809 21.34 81.1209 19.51 81.1209 17.08ZM119.376 23.29H112.671V30.175H103.086V23.29H96.3809V14.155H103.086V7.225H112.671V14.155H119.376V23.29Z" fill="#757575"/>
</svg>
